<svg xmlns="http://www.w3.org/2000/svg" viewBox="0 0 15 15" width="15" height="15">
	<style>
		tspan { white-space:pre }
		.shp0 { fill: #000000 } 
	</style>
	<path id="Layer" fill-rule="evenodd" class="shp0" d="M11.25 6.57C11.5 6.57 11.74 6.62 11.97 6.71C12.19 6.81 12.4 6.94 12.58 7.12C12.75 7.29 12.89 7.5 12.98 7.72C13.08 7.95 13.13 8.19 13.13 8.44L13.13 13.12C13.13 13.37 13.08 13.61 12.99 13.84C12.89 14.07 12.75 14.27 12.58 14.45C12.4 14.62 12.2 14.76 11.97 14.86C11.74 14.95 11.5 15 11.25 15L3.75 15C3.5 15 3.26 14.95 3.03 14.86C2.8 14.77 2.6 14.63 2.42 14.46C2.25 14.28 2.11 14.08 2.01 13.85C1.92 13.62 1.87 13.38 1.87 13.13L1.87 8.44C1.87 8.19 1.92 7.95 2.01 7.72C2.11 7.49 2.25 7.29 2.42 7.11C2.6 6.94 2.8 6.8 3.03 6.7C3.26 6.61 3.5 6.56 3.75 6.56L3.75 3.75C3.75 2.76 4.15 1.8 4.85 1.1C5.55 0.4 6.51 0 7.5 0C8.49 0 9.45 0.4 10.15 1.1C10.85 1.8 11.25 2.76 11.25 3.75L11.25 6.57ZM7.99 11.11C8.06 11.07 8.12 11.02 8.18 10.97C8.24 10.91 8.29 10.85 8.33 10.78C8.37 10.71 8.4 10.63 8.43 10.56C8.45 10.48 8.46 10.4 8.46 10.32C8.49 10.06 8.4 9.79 8.22 9.59C8.04 9.4 7.79 9.28 7.53 9.28C7.26 9.28 7.01 9.4 6.83 9.59C6.65 9.79 6.56 10.06 6.59 10.32C6.59 10.4 6.6 10.48 6.62 10.56C6.65 10.63 6.68 10.71 6.72 10.78C6.76 10.85 6.81 10.91 6.87 10.97C6.93 11.02 6.99 11.07 7.06 11.11L7.06 12.66C7.06 12.78 7.11 12.9 7.2 12.99C7.29 13.08 7.41 13.13 7.53 13.13C7.65 13.13 7.77 13.08 7.86 12.99C7.95 12.9 8 12.78 8 12.66L8 11.11L7.99 11.11ZM9.38 6.56L9.37 3.75C9.38 3.25 9.18 2.78 8.83 2.43C8.48 2.08 8 1.88 7.5 1.88C7.01 1.88 6.53 2.08 6.18 2.43C5.83 2.78 5.63 3.25 5.63 3.75L5.63 6.56L9.38 6.56Z" />
</svg>