<svg xmlns="http://www.w3.org/2000/svg" viewBox="0 0 15 15" width="15" height="15">
	<style>
		tspan { white-space:pre }
		.shp0 { fill: #000000 } 
	</style>
	<path id="Layer" class="shp0" d="M13.31 11.5C13.27 11.38 13.23 11.26 13.17 11.14C13.12 11.03 13.05 10.91 12.98 10.81C12.9 10.7 12.82 10.6 12.73 10.51C12.64 10.42 12.54 10.34 12.44 10.26C12.23 10.14 12.01 10.02 11.79 9.91C11.58 9.8 11.35 9.69 11.13 9.6C10.9 9.5 10.67 9.41 10.44 9.33C10.21 9.25 9.98 9.18 9.74 9.11C9.68 9.09 9.63 9.07 9.57 9.05C9.52 9.03 9.46 9.01 9.41 8.99C9.35 8.96 9.3 8.94 9.25 8.91C9.19 8.89 9.14 8.86 9.09 8.83C9.05 8.8 9.01 8.76 8.98 8.72C8.95 8.69 8.92 8.64 8.89 8.6C8.87 8.56 8.85 8.51 8.83 8.46C8.82 8.41 8.81 8.36 8.8 8.31C8.8 8.28 8.8 8.26 8.8 8.23C8.8 8.21 8.8 8.18 8.8 8.15C8.8 8.13 8.8 8.1 8.8 8.08C8.8 8.05 8.8 8.03 8.8 8C8.97 7.73 9.13 7.45 9.26 7.16C9.39 6.87 9.51 6.56 9.6 6.26C9.69 5.95 9.76 5.64 9.8 5.32C9.85 5 9.87 4.68 9.87 4.36C9.92 4.03 9.9 3.69 9.79 3.37C9.69 3.06 9.52 2.77 9.28 2.53C9.05 2.29 8.76 2.11 8.44 2C8.13 1.9 7.79 1.86 7.46 1.91C7.13 1.86 6.78 1.88 6.46 1.98C6.14 2.09 5.84 2.27 5.6 2.51C5.36 2.74 5.18 3.04 5.08 3.36C4.97 3.68 4.95 4.03 5 4.36C5.01 4.69 5.04 5.02 5.09 5.35C5.15 5.68 5.23 6 5.33 6.32C5.44 6.63 5.56 6.94 5.71 7.24C5.86 7.53 6.04 7.82 6.23 8.09L6.23 8.3C6.22 8.35 6.21 8.4 6.2 8.45C6.18 8.5 6.16 8.55 6.14 8.59C6.11 8.63 6.08 8.68 6.05 8.72C6.02 8.75 5.98 8.79 5.94 8.82C5.89 8.85 5.84 8.88 5.78 8.9C5.73 8.93 5.68 8.95 5.62 8.98C5.57 9 5.51 9.02 5.46 9.04C5.4 9.06 5.35 9.08 5.29 9.1C5.05 9.16 4.82 9.24 4.59 9.32C4.36 9.4 4.13 9.48 3.9 9.58C3.68 9.67 3.45 9.77 3.24 9.88C3.02 9.99 2.8 10.11 2.59 10.23C2.49 10.31 2.39 10.4 2.3 10.49C2.21 10.59 2.13 10.69 2.05 10.8C1.98 10.9 1.91 11.02 1.86 11.13C1.8 11.25 1.76 11.37 1.72 11.5C1.68 11.63 1.65 11.76 1.62 11.89C1.59 12.03 1.56 12.16 1.55 12.3C1.53 12.43 1.51 12.57 1.51 12.7C1.5 12.84 1.5 12.97 1.5 13.11L13.53 13.11C13.53 12.97 13.53 12.84 13.52 12.7C13.52 12.57 13.5 12.43 13.48 12.3C13.47 12.16 13.44 12.03 13.41 11.89C13.38 11.76 13.35 11.63 13.31 11.5L13.31 11.5Z" />
</svg>